<svg width="300" height="293" viewBox="0 0 300 293" fill="none" xmlns="http://www.w3.org/2000/svg">
<path d="M160 149.5C160 155.299 155.299 160 149.5 160C143.701 160 139 155.299 139 149.5C139 143.701 143.701 139 149.5 139C155.299 139 160 143.701 160 149.5Z" fill="white"/>
<circle cx="149.5" cy="149.5" r="89" stroke="white" stroke-width="3"/>
<path d="M227.432 16.1998L232.155 20.276C234.313 22.1386 236.296 24.1953 238.078 26.4202V26.4202C240.093 28.9342 241.841 31.6504 243.295 34.525L243.643 35.2138C244.758 37.4186 245.686 39.7134 246.416 42.0739L246.53 42.442C247.778 46.4752 248.404 50.6752 248.385 54.897L248.381 55.8675C248.373 57.7533 248.192 59.6344 247.841 61.4873V61.4873C247.154 65.1176 245.822 68.5954 243.908 71.7559L243.819 71.903C242.752 73.6643 241.518 75.3181 240.132 76.8413L239.329 77.7245C237.769 79.4391 236.077 81.0283 234.269 82.4774L233.137 83.3838C231.712 84.5258 230.199 85.5539 228.612 86.4585V86.4585C225.715 88.1099 222.596 89.3367 219.351 90.1012L217.349 90.5726" stroke="white" stroke-width="3" stroke-linejoin="round"/>
<path d="M101.864 2.88319L108.074 2.2846C110.911 2.01107 113.768 1.99847 116.608 2.24693V2.24693C119.817 2.5277 122.989 3.1404 126.072 4.0752L126.81 4.2992C129.175 5.0162 131.475 5.93092 133.686 7.0337L134.031 7.20569C137.809 9.08998 141.277 11.5394 144.317 14.4695L145.016 15.143C146.373 16.4519 147.608 17.8821 148.706 19.4159V19.4159C150.855 22.4209 152.449 25.7868 153.412 29.354L153.457 29.52C153.993 31.5079 154.336 33.5431 154.48 35.597L154.564 36.7879C154.726 39.1 154.706 41.4212 154.504 43.7301L154.377 45.1743C154.218 46.9939 153.916 48.798 153.474 50.5702V50.5702C152.667 53.8054 151.399 56.9079 149.709 59.7826L148.667 61.555" stroke="white" stroke-width="3" stroke-linejoin="round"/>
<path d="M13.6683 67.6293L18.3014 63.4509C20.4184 61.5416 22.7061 59.8305 25.1358 58.3392V58.3392C27.8813 56.654 30.7941 55.258 33.8275 54.1736L34.5544 53.9137C36.881 53.0819 39.2735 52.4474 41.7065 52.017L42.086 51.9498C46.2433 51.2143 50.4885 51.117 54.6751 51.6614L55.6375 51.7865C57.5075 52.0297 59.3515 52.4434 61.1462 53.0224V53.0224C64.6626 54.1568 67.9473 55.912 70.8446 58.2047L70.9795 58.3114C72.5941 59.5891 74.0812 61.0203 75.4198 62.5847L76.196 63.4918C77.7029 65.2528 79.0689 67.1296 80.2813 69.105L81.0397 70.3405C81.9951 71.8971 82.8266 73.5266 83.5264 75.2136V75.2136C84.804 78.2937 85.6326 81.5412 85.9867 84.8569L86.205 86.9011" stroke="white" stroke-width="3" stroke-linejoin="round"/>
<path d="M290 215.354L286.21 220.309C284.478 222.573 282.541 224.674 280.425 226.585V226.585C278.034 228.744 275.426 230.649 272.642 232.27L271.975 232.658C269.84 233.901 267.604 234.963 265.29 235.831L264.93 235.966C260.977 237.45 256.821 238.322 252.606 238.552L251.637 238.605C249.754 238.708 247.865 238.639 245.995 238.398V238.398C242.33 237.926 238.78 236.801 235.512 235.077L235.36 234.996C233.539 234.035 231.815 232.9 230.213 231.607L229.284 230.857C227.48 229.402 225.794 227.806 224.241 226.086L223.269 225.01C222.045 223.654 220.93 222.205 219.933 220.674V220.674C218.114 217.88 216.705 214.838 215.751 211.643L215.162 209.674" stroke="white" stroke-width="3" stroke-linejoin="round"/>
<path d="M3.91875 196.02L2.86239 189.872C2.37969 187.062 2.15578 184.214 2.19347 181.363V181.363C2.23606 178.142 2.61246 174.934 3.31665 171.791L3.48539 171.037C4.0255 168.626 4.76758 166.265 5.70376 163.978L5.84977 163.622C7.44941 159.715 9.63553 156.074 12.3327 152.826L12.9527 152.08C14.1575 150.629 15.4925 149.291 16.9409 148.084V148.084C19.7787 145.718 23.0174 143.879 26.5036 142.655L26.6658 142.598C28.6086 141.916 30.6128 141.424 32.6505 141.128L33.832 140.957C36.1257 140.624 38.4421 140.472 40.7596 140.503L42.2092 140.522C44.0355 140.546 45.8571 140.714 47.6571 141.024V141.024C50.9432 141.59 54.131 142.625 57.1228 144.097L58.9674 145.005" stroke="white" stroke-width="3" stroke-linejoin="round"/>
<path d="M61.0811 284.474L57.6951 279.234C56.1479 276.84 54.8236 274.308 53.739 271.672V271.672C52.5133 268.693 51.5998 265.595 51.0131 262.427L50.8725 261.668C50.4225 259.239 50.1777 256.775 50.1408 254.305L50.1351 253.92C50.072 249.698 50.6532 245.492 51.8584 241.446L52.1354 240.516C52.6738 238.708 53.3762 236.954 54.2341 235.274V235.274C55.9149 231.984 58.1715 229.021 60.8971 226.527L61.0239 226.411C62.5428 225.021 64.1928 223.781 65.9507 222.709L66.97 222.087C68.9488 220.881 71.0195 219.831 73.1629 218.95L74.5036 218.398C76.1927 217.703 77.9339 217.142 79.711 216.72V216.72C82.9554 215.95 86.2935 215.651 89.6232 215.83L91.6761 215.94" stroke="white" stroke-width="3" stroke-linejoin="round"/>
<path d="M207.736 287.258L201.724 288.926C198.977 289.688 196.165 290.197 193.325 290.445V290.445C190.116 290.726 186.887 290.673 183.688 290.288L182.922 290.196C180.469 289.9 178.045 289.399 175.676 288.697L175.306 288.587C171.259 287.388 167.417 285.578 163.915 283.22L163.11 282.678C161.546 281.625 160.081 280.431 158.734 279.111V279.111C156.095 276.525 153.941 273.487 152.374 270.141L152.301 269.985C151.427 268.121 150.736 266.176 150.238 264.178L149.949 263.02C149.387 260.771 149.004 258.482 148.802 256.173L148.676 254.729C148.516 252.909 148.501 251.08 148.628 249.258V249.258C148.862 245.931 149.572 242.656 150.736 239.532L151.455 237.605" stroke="white" stroke-width="3" stroke-linejoin="round"/>
<path d="M297.717 103.553L298.098 109.78C298.272 112.626 298.185 115.481 297.838 118.311V118.311C297.445 121.508 296.722 124.657 295.68 127.705L295.431 128.435C294.632 130.773 293.637 133.04 292.458 135.211L292.274 135.55C290.259 139.26 287.69 142.641 284.656 145.576L283.958 146.251C282.603 147.562 281.13 148.747 279.559 149.79V149.79C276.481 151.833 273.061 153.309 269.463 154.146L269.295 154.185C267.29 154.652 265.244 154.924 263.186 154.996L261.993 155.038C259.677 155.119 257.358 155.018 255.057 154.736L253.618 154.559C251.806 154.337 250.013 153.972 248.257 153.468V153.468C245.052 152.548 241.996 151.173 239.182 149.384L237.447 148.281" stroke="white" stroke-width="3" stroke-linejoin="round"/>
</svg>
